<svg xmlns="http://www.w3.org/2000/svg" width="49.581" height="49.582" viewBox="0 0 49.581 49.582"><g transform="translate(-646.401 -34.231)"><path d="M682.116,59.022l12.5-12.5a2.371,2.371,0,0,0,0-3.356l-7.546-7.546a2.371,2.371,0,0,0-3.356,0L671.191,48.1,658.7,35.6a2.371,2.371,0,0,0-3.356,0l-7.546,7.546a2.371,2.371,0,0,0,0,3.356l12.473,12.52-12.5,12.5a2.372,2.372,0,0,0,0,3.357l7.546,7.545a2.371,2.371,0,0,0,3.356,0l12.52-12.473,12.5,12.5a2.371,2.371,0,0,0,3.356,0l7.546-7.546a2.371,2.371,0,0,0,0-3.356Zm3.261,18.352-12.5-12.5a2.371,2.371,0,0,0-3.356,0l-12.5,12.5-4.189-4.189,12.5-12.5a2.371,2.371,0,0,0,0-3.356l-12.521-12.5,4.19-4.189,12.5,12.5a2.371,2.371,0,0,0,3.356,0l12.5-12.5,4.19,4.189-12.473,12.5a2.371,2.371,0,0,0,0,3.356l12.5,12.5Z" fill="#fff" stroke="#fff" stroke-width="1"/></g></svg>