<svg xmlns="http://www.w3.org/2000/svg" width="217.827" height="39.145" viewBox="0 0 217.827 39.145"><g transform="translate(-2.845 -10.348)"><path d="M522.193,121.333a5.571,5.571,0,1,1,5.571,5.57,5.571,5.571,0,0,1-5.571-5.57" transform="translate(-415.382 -90.672)" fill="#fff"/><path d="M559.994,121.438a5.338,5.338,0,1,1,5.338,5.338,5.338,5.338,0,0,1-5.338-5.338" transform="translate(-427.159 -90.777)" fill="#fff"/><path d="M374.118,110.588a12.344,12.344,0,0,0,1.008,4.943,12.926,12.926,0,0,0,6.825,6.836,12.532,12.532,0,0,0,9.848,0A12.9,12.9,0,0,0,397.215,118H400.7a15.411,15.411,0,0,1-2.73,3.695,16,16,0,0,1-5,3.38,15.566,15.566,0,0,1-12.179,0,15.919,15.919,0,0,1-8.378-8.378,15.587,15.587,0,0,1,0-12.178,15.923,15.923,0,0,1,8.378-8.379,15.59,15.59,0,0,1,12.179,0,16.048,16.048,0,0,1,5,3.381,15.419,15.419,0,0,1,2.73,3.7h-3.528a10.145,10.145,0,0,0-1.344-1.566,12.636,12.636,0,0,0-4.031-2.793,12.075,12.075,0,0,0-4.914-1.018,12.275,12.275,0,0,0-4.934,1.011,12.983,12.983,0,0,0-6.825,6.815,12.187,12.187,0,0,0-1.008,4.921" transform="translate(-368.333 -84.173)" fill="#fff"/><path d="M418.451,96.365h3.025v10.248a6.542,6.542,0,0,1,1.2-1.219,7.2,7.2,0,0,1,1.554-.924,9.877,9.877,0,0,1,1.784-.587,8.332,8.332,0,0,1,1.848-.21,8.985,8.985,0,0,1,3.655.756,9.646,9.646,0,0,1,5.039,5.039,9.007,9.007,0,0,1,.757,3.654v.041l.041,12.6h-3.023l-.043-12.6v-.041a6.323,6.323,0,0,0-1.889-4.557,6.729,6.729,0,0,0-2.058-1.365,6.229,6.229,0,0,0-2.478-.5,5.564,5.564,0,0,0-2.414.546,6.7,6.7,0,0,0-2.016,1.448,7.4,7.4,0,0,0-1.387,2.057,5.785,5.785,0,0,0-.525,2.415v12.6h-3.066Z" transform="translate(-383.061 -84.629)" fill="#fff"/><path d="M449.928,98.128a1.721,1.721,0,1,1,.5,1.261,1.71,1.71,0,0,1-.5-1.261m.252,6.636h2.94v21h-2.94Z" transform="translate(-392.868 -84.628)" fill="#fff"/><path d="M458.955,108.073h3.024v1.889a7.149,7.149,0,0,1,2.751-2.162,8.44,8.44,0,0,1,3.632-.819,8.53,8.53,0,0,1,4.472,1.2,10.2,10.2,0,0,1,3.3,3.171,9.346,9.346,0,0,1,3.422-3.171,9.524,9.524,0,0,1,4.683-1.2,8.981,8.981,0,0,1,3.654.756,9.747,9.747,0,0,1,3,2.037,9.508,9.508,0,0,1,2.75,6.7l.042,12.6h-3.024l-.042-12.6a6.335,6.335,0,0,0-.5-2.52,6.709,6.709,0,0,0-1.365-2.057,6.319,6.319,0,0,0-2.016-1.387,6.461,6.461,0,0,0-5,0,6.568,6.568,0,0,0-2.037,1.387,6.492,6.492,0,0,0-1.386,2.057,6.335,6.335,0,0,0-.5,2.52l.042,12.6h-3.024l-.042-12.6a7.513,7.513,0,0,0-.609-2.582,6.655,6.655,0,0,0-1.385-2.058,6.279,6.279,0,0,0-2-1.343,6.16,6.16,0,0,0-2.436-.483,5.656,5.656,0,0,0-2.456.546A7,7,0,0,0,463.868,112a6.833,6.833,0,0,0-1.386,2.057,5.983,5.983,0,0,0-.5,2.415l.042,12.6H459Z" transform="translate(-395.68 -87.936)" fill="#fff"/><path d="M513.55,118.591a11.244,11.244,0,0,1,.9-4.494,11.6,11.6,0,0,1,6.153-6.152,11.627,11.627,0,0,1,8.986,0,11.6,11.6,0,0,1,6.153,6.152,11.637,11.637,0,0,1,0,8.987,11.6,11.6,0,0,1-6.153,6.152,11.248,11.248,0,0,1-4.493.9,10.815,10.815,0,0,1-4.913-1.282,8.993,8.993,0,0,1-3.7-3.17v11.759h-2.94Zm2.94,0a8.409,8.409,0,0,0,.673,3.339,8.591,8.591,0,0,0,4.6,4.6,8.622,8.622,0,0,0,6.677,0,8.588,8.588,0,0,0,4.6-4.6,8.632,8.632,0,0,0,0-6.678,8.588,8.588,0,0,0-4.6-4.6,8.622,8.622,0,0,0-6.677,0,8.591,8.591,0,0,0-4.6,4.6,8.4,8.4,0,0,0-.673,3.339" transform="translate(-412.69 -87.955)" fill="#fff"/><path d="M550.941,118.53a11.244,11.244,0,0,1,.9-4.493A11.613,11.613,0,0,1,558,107.883a11.645,11.645,0,0,1,8.987,0,11.613,11.613,0,0,1,6.153,6.153,11.268,11.268,0,0,1,.9,4.493v10.541H571.1v-2.813l-.462.461a11.569,11.569,0,0,1-3.654,2.456,11.621,11.621,0,0,1-8.987,0,11.6,11.6,0,0,1-6.153-6.152,11.249,11.249,0,0,1-.9-4.494m2.94,0a8.422,8.422,0,0,0,.672,3.339,8.6,8.6,0,0,0,4.6,4.6,8.639,8.639,0,0,0,6.677,0,8.646,8.646,0,0,0,4.6-4.578,9.067,9.067,0,0,0,.672-2.981v-.378a8.423,8.423,0,0,0-.672-3.339,8.593,8.593,0,0,0-4.6-4.6,8.622,8.622,0,0,0-6.677,0,8.6,8.6,0,0,0-4.6,4.6,8.412,8.412,0,0,0-.672,3.339" transform="translate(-424.339 -87.936)" fill="#fff"/><path d="M604.715,116.471a6.333,6.333,0,0,0-.5-2.52,6.484,6.484,0,0,0-3.444-3.444,6.226,6.226,0,0,0-2.478-.5,5.815,5.815,0,0,0-2.478.546A6.936,6.936,0,0,0,593.754,112a7.083,7.083,0,0,0-1.407,2.078,5.816,5.816,0,0,0-.525,2.394l.043,12.6h-2.982v-21h2.939V110a4.928,4.928,0,0,1,1.135-1.239,7.769,7.769,0,0,1,1.574-.966,8.744,8.744,0,0,1,1.826-.609,9.14,9.14,0,0,1,5.586.545,9.587,9.587,0,0,1,5.039,5.06,9.159,9.159,0,0,1,.756,3.675l.042,12.6h-3.024Z" transform="translate(-436.16 -87.936)" fill="#fff"/><path d="M622.993,118.53a8.409,8.409,0,0,0,.673,3.339,8.591,8.591,0,0,0,4.6,4.6,8.639,8.639,0,0,0,6.677,0,8.654,8.654,0,0,0,2.752-1.847,8.27,8.27,0,0,0,1.427-1.932h3.234l-.127.336a11.348,11.348,0,0,1-2.456,3.675,11.651,11.651,0,0,1-3.675,2.477,11.619,11.619,0,0,1-8.986,0,11.6,11.6,0,0,1-6.153-6.152,11.621,11.621,0,0,1,0-8.987,11.607,11.607,0,0,1,6.153-6.153,11.644,11.644,0,0,1,8.986,0,11.655,11.655,0,0,1,3.675,2.478,11.348,11.348,0,0,1,2.456,3.675l.127.293h-3.276a7.713,7.713,0,0,0-1.385-1.889,8.654,8.654,0,0,0-2.752-1.847,8.622,8.622,0,0,0-6.677,0,8.591,8.591,0,0,0-4.6,4.6,8.4,8.4,0,0,0-.673,3.339" transform="translate(-445.871 -87.936)" fill="#fff"/><path d="M535.834,105.351s-.414-.2-1.143-.52-1.773-.758-3.036-1.223a33.369,33.369,0,0,0-4.368-1.285,21.6,21.6,0,0,0-2.494-.394,14.917,14.917,0,0,0-2.565-.044,10.957,10.957,0,0,0-2.485.43,12.266,12.266,0,0,0-1.163.4c-.377.151-.729.348-1.084.524a12.856,12.856,0,0,0-1.866,1.349c-.263.26-.54.5-.777.756l-.686.764c-.206.257-.383.52-.571.761a5.926,5.926,0,0,0-.5.707c-.282.465-.577.853-.752,1.208-.386.693-.624,1.091-.624,1.091s.109-.442.33-1.219a11.861,11.861,0,0,1,.5-1.37,13.453,13.453,0,0,1,.856-1.711l.612-.92c.218-.317.5-.6.76-.92s.6-.586.9-.893a13.313,13.313,0,0,1,1.063-.812,10.425,10.425,0,0,1,2.535-1.208,12.441,12.441,0,0,1,2.834-.55,16.379,16.379,0,0,1,2.85.107,17.144,17.144,0,0,1,2.666.566,19.892,19.892,0,0,1,2.378.843,23.963,23.963,0,0,1,4.841,2.765c.644.483.982.794.982.794" transform="translate(-412.12 -85.841)" fill="#fff"/><path d="M574.744,109.6s-.109-.478-.275-1.318c-.161-.394-.308-.867-.542-1.381a9.977,9.977,0,0,0-1.011-1.618,4.714,4.714,0,0,0-.7-.82c-.276-.251-.511-.557-.825-.8l-.966-.726-1.093-.624-.279-.159-.3-.117-.611-.238c-.207-.077-.406-.169-.618-.234l-.652-.162a14.424,14.424,0,0,0-2.69-.434H562.8c-.23.005-.459-.014-.688.012l-.683.087c-.454.063-.905.113-1.354.16l-1.305.3a19.283,19.283,0,0,0-2.452.7c-.387.131-.772.239-1.13.38s-.7.295-1.032.433c-.654.295-1.294.5-1.813.773l-1.371.678c-.768.37-1.221.57-1.221.57s.374-.312,1.05-.842c.339-.262.75-.586,1.234-.941a18.954,18.954,0,0,1,1.711-1.069l1-.586c.351-.2.743-.338,1.132-.516l1.209-.529a9.825,9.825,0,0,1,1.315-.428l1.379-.4c.479-.087.969-.162,1.463-.233l.743-.109c.249-.032.5-.019.758-.031l1.53-.025a16.013,16.013,0,0,1,3.015.545l.73.2c.236.087.461.2.689.3l.675.31.333.155.308.2c.4.268.815.511,1.184.792l1.007.921a10.317,10.317,0,0,1,.83.983,5.486,5.486,0,0,1,.647,1.006,8.4,8.4,0,0,1,.813,1.906,14.329,14.329,0,0,1,.286,1.569c-.018.855-.043,1.345-.043,1.345" transform="translate(-423.967 -85.562)" fill="#fff"/><path d="M554.862,134.34s.244.14.669.386l.761.432.985.544c.37.18.755.4,1.174.6s.86.417,1.319.624c.45.229.945.388,1.426.6s.995.347,1.495.522c.509.126,1.012.309,1.521.394a14.334,14.334,0,0,0,1.5.246,10.852,10.852,0,0,0,1.418.1,10.108,10.108,0,0,0,1.285-.035c.4-.05.768-.081,1.1-.107l.843-.182c.476-.1.763-.142.763-.142s-.229.157-.656.414c-.213.125-.474.288-.786.447-.324.124-.694.264-1.108.4a6.5,6.5,0,0,1-1.371.3,7.4,7.4,0,0,1-1.571.1,9.477,9.477,0,0,1-1.678-.144c-.569-.079-1.123-.255-1.689-.384-.54-.2-1.093-.382-1.608-.618a13.949,13.949,0,0,1-1.473-.759,12.354,12.354,0,0,1-1.294-.836c-.408-.269-.753-.581-1.085-.846a11.83,11.83,0,0,1-1.939-2.053" transform="translate(-425.56 -96.46)" fill="#fff"/><path d="M535.892,134.34a11.828,11.828,0,0,1-1.939,2.053c-.331.265-.677.577-1.084.846a12.364,12.364,0,0,1-1.294.836,13.885,13.885,0,0,1-1.473.759c-.514.235-1.067.413-1.607.618-.567.129-1.121.3-1.69.384a9.471,9.471,0,0,1-1.678.144,7.391,7.391,0,0,1-1.57-.1,6.507,6.507,0,0,1-1.371-.3c-.414-.134-.784-.274-1.107-.4-.313-.16-.573-.322-.788-.447-.426-.257-.655-.414-.655-.414s.286.046.763.142l.843.182c.334.027.706.058,1.1.107a10.116,10.116,0,0,0,1.286.035,10.858,10.858,0,0,0,1.417-.1,14.363,14.363,0,0,0,1.5-.246c.509-.085,1.011-.268,1.521-.394.5-.175,1.011-.319,1.495-.522s.975-.37,1.426-.6c.459-.207.9-.414,1.319-.624s.8-.423,1.174-.6l.986-.544.761-.432.668-.386" transform="translate(-414.585 -96.46)" fill="#fff"/><path d="M657.031,118.5a8.422,8.422,0,0,0,.672,3.338,8.6,8.6,0,0,0,4.6,4.6,8.622,8.622,0,0,0,6.677,0,8.635,8.635,0,0,0,2.75-1.848,8.207,8.207,0,0,0,1.428-1.932h3.234l-.125.336a11.382,11.382,0,0,1-2.457,3.675,11.659,11.659,0,0,1-3.674,2.477,11.622,11.622,0,0,1-8.988,0,11.6,11.6,0,0,1-6.152-6.152,11.638,11.638,0,0,1,0-8.988,11.6,11.6,0,0,1,6.152-6.151,11.622,11.622,0,0,1,8.988,0,11.68,11.68,0,0,1,3.674,2.476A11.39,11.39,0,0,1,676.266,114a10.7,10.7,0,0,1,.881,3.612H657.073c-.028.31-.042.6-.042.883m14.7-6.09a8.67,8.67,0,0,0-2.75-1.848,8.63,8.63,0,0,0-6.677,0,8.68,8.68,0,0,0-4.388,4.116h15.412a9.205,9.205,0,0,0-1.6-2.268" transform="translate(-456.476 -87.926)" fill="#fff"/><path d="M667.827,100.041l3.977-5.693h4.71l-6.113,5.693Z" transform="translate(-460.755 -84)" fill="#fff"/></g></svg>