<svg xmlns="http://www.w3.org/2000/svg" width="9.451" height="9.468" viewBox="0 0 9.451 9.468"><path d="M11.618,9.339v1.275a.85.85,0,0,1-.926.85,8.408,8.408,0,0,1-3.667-1.3A8.285,8.285,0,0,1,4.476,7.61a8.408,8.408,0,0,1-1.3-3.684A.85.85,0,0,1,4.017,3H5.291a.85.85,0,0,1,.85.731,5.455,5.455,0,0,0,.3,1.194.85.85,0,0,1-.191.9l-.54.54A6.8,6.8,0,0,0,8.257,8.91l.54-.54a.85.85,0,0,1,.9-.191,5.455,5.455,0,0,0,1.194.3.85.85,0,0,1,.731.863Z" transform="translate(-2.668 -2.5)" fill="none" stroke="#fff" stroke-linecap="round" stroke-linejoin="round" stroke-width="1"/></svg>